ffmpeg version git-2026-04-19-de18feb Copyright (c) 2000-2026 the FFmpeg developers
  built with gcc 9 (Ubuntu 9.4.0-1ubuntu1~20.04.2)
  configuration: --enable-shared --enable-gpl --enable-libx264
  libavutil      60. 30.100 / 60. 30.100
  libavcodec     62. 30.100 / 62. 30.100
  libavformat    62. 13.102 / 62. 13.102
  libavdevice    62.  4.100 / 62.  4.100
  libavfilter    11. 15.101 / 11. 15.101
  libswscale      9.  7.100 /  9.  7.100
  libswresample   6.  4.100 /  6.  4.100
[in#0/x11grab @ 0x55e95811dc40] Stream #0: not enough frames to estimate rate; consider increasing probesize
Input #0, x11grab, from ':0.0+0,0':
  Duration: N/A, start: 1777383608.726754, bitrate: 3678192 kb/s
  Stream #0:0: Video: rawvideo (BGR[0] / 0x524742), bgr0, 2870x1602, 3678192 kb/s, 25 fps, 1000k tbr, 1000k tbn, start 1777383608.726754
Stream mapping:
  Stream #0:0 -> #0:0 (rawvideo (native) -> h264 (libx264))
[libx264 @ 0x55e95812bf00] using cpu capabilities: MMX2 SSE2Fast SSSE3 SSE4.2 AVX FMA3 BMI2 AVX2
[libx264 @ 0x55e95812bf00] profile High, level 5.0
[libx264 @ 0x55e95812bf00] 264 - core 155 r2917 0a84d98 - H.264/MPEG-4 AVC codec - Copyleft 2003-2018 - http://www.videolan.org/x264.html - options: cabac=1 ref=1 deblock=1:0:0 analyse=0x3:0x113 me=hex subme=2 psy=1 psy_rd=1.00:0.00 mixed_ref=0 me_range=16 chroma_me=1 trellis=0 8x8dct=1 cqm=0 deadzone=21,11 fast_pskip=1 chroma_qp_offset=0 threads=6 lookahead_threads=2 sliced_threads=0 nr=0 decimate=1 interlaced=0 bluray_compat=0 constrained_intra=0 bframes=3 b_pyramid=2 b_adapt=1 b_bias=0 direct=1 weightb=1 open_gop=0 weightp=1 keyint=250 keyint_min=25 scenecut=40 intra_refresh=0 rc_lookahead=10 rc=crf mbtree=1 crf=23.0 qcomp=0.60 qpmin=0 qpmax=69 qpstep=4 ip_ratio=1.40 aq=1:1.00
Output #0, matroska, to '/home/lmy/catkin_ws/recordings_tmp/exp_10_segment_v2/screen.mkv':
  Metadata:
    encoder         : Lavf62.13.102
  Stream #0:0: Video: h264 (H264 / 0x34363248), yuv420p(tv, progressive), 2870x1602, q=2-31, 25 fps, 1k tbn
    Metadata:
      encoder         : Lavc62.30.100 libx264
    Side data:
      CPB properties: bitrate max/min/avg: 0/0/0 buffer size: 0 vbv_delay: N/A
frame=    0 fps=0.0 q=0.0 size=       0KiB time=N/A bitrate=N/A speed=N/A elapsed=0:00:00.50    frame=    5 fps=5.0 q=28.0 size=       1KiB time=00:00:00.12 bitrate=  39.6kbits/s speed=0.12x elapsed=0:00:01.00    frame=   18 fps= 12 q=28.0 size=       1KiB time=00:00:00.64 bitrate=   7.4kbits/s speed=0.427x elapsed=0:00:01.50    frame=   31 fps= 15 q=28.0 size=       1KiB time=00:00:01.16 bitrate=   4.1kbits/s speed=0.58x elapsed=0:00:02.00    frame=   43 fps= 17 q=28.0 size=       1KiB time=00:00:01.64 bitrate=   2.9kbits/s speed=0.656x elapsed=0:00:02.50    frame=   56 fps= 19 q=28.0 size=       1KiB time=00:00:02.16 bitrate=   2.2kbits/s speed=0.72x elapsed=0:00:03.00    frame=   68 fps= 19 q=28.0 size=       1KiB time=00:00:02.64 bitrate=   1.8kbits/s speed=0.754x elapsed=0:00:03.50    frame=   81 fps= 20 q=28.0 size=       1KiB time=00:00:03.16 bitrate=   1.5kbits/s speed=0.79x elapsed=0:00:04.00    frame=   93 fps= 21 q=28.0 size=       1KiB time=00:00:03.64 bitrate=   1.3kbits/s speed=0.809x elapsed=0:00:04.50    frame=  106 fps= 21 q=28.0 size=       1KiB time=00:00:04.16 bitrate=   1.1kbits/s speed=0.832x elapsed=0:00:05.00    frame=  118 fps= 21 q=28.0 size=       1KiB time=00:00:04.64 bitrate=   1.0kbits/s speed=0.843x elapsed=0:00:05.50    frame=  131 fps= 22 q=28.0 size=     186KiB time=00:00:05.16 bitrate= 294.6kbits/s speed=0.86x elapsed=0:00:06.00    frame=  143 fps= 22 q=28.0 size=     186KiB time=00:00:05.64 bitrate= 269.5kbits/s speed=0.867x elapsed=0:00:06.50    frame=  156 fps= 22 q=28.0 size=     186KiB time=00:00:06.16 bitrate= 246.8kbits/s speed=0.88x elapsed=0:00:07.00    frame=  168 fps= 22 q=28.0 size=     186KiB time=00:00:06.64 bitrate= 228.9kbits/s speed=0.885x elapsed=0:00:07.50    frame=  181 fps= 23 q=28.0 size=     186KiB time=00:00:07.16 bitrate= 212.3kbits/s speed=0.894x elapsed=0:00:08.00    frame=  193 fps= 23 q=28.0 size=     186KiB time=00:00:07.64 bitrate= 199.0kbits/s speed=0.898x elapsed=0:00:08.50    frame=  206 fps= 23 q=28.0 size=     186KiB time=00:00:08.16 bitrate= 186.3kbits/s speed=0.906x elapsed=0:00:09.00    frame=  218 fps= 23 q=28.0 size=     186KiB time=00:00:08.64 bitrate= 175.9kbits/s speed=0.909x elapsed=0:00:09.50    frame=  231 fps= 23 q=28.0 size=     186KiB time=00:00:09.16 bitrate= 165.9kbits/s speed=0.915x elapsed=0:00:10.00    frame=  243 fps= 23 q=28.0 size=     186KiB time=00:00:09.64 bitrate= 157.7kbits/s speed=0.918x elapsed=0:00:10.50    frame=  256 fps= 23 q=28.0 size=     256KiB time=00:00:10.16 bitrate= 206.4kbits/s speed=0.923x elapsed=0:00:11.00    frame=  268 fps= 23 q=28.0 size=     256KiB time=00:00:10.64 bitrate= 197.1kbits/s speed=0.925x elapsed=0:00:11.50    frame=  281 fps= 23 q=28.0 size=     256KiB time=00:00:11.16 bitrate= 187.9kbits/s speed=0.93x elapsed=0:00:12.00    frame=  293 fps= 23 q=28.0 size=     256KiB time=00:00:11.64 bitrate= 180.2kbits/s speed=0.931x elapsed=0:00:12.50    frame=  306 fps= 24 q=28.0 size=     256KiB time=00:00:12.16 bitrate= 172.5kbits/s speed=0.935x elapsed=0:00:13.00    frame=  318 fps= 24 q=28.0 size=     256KiB time=00:00:12.64 bitrate= 165.9kbits/s speed=0.936x elapsed=0:00:13.50    frame=  331 fps= 24 q=28.0 size=     256KiB time=00:00:13.16 bitrate= 159.4kbits/s speed=0.939x elapsed=0:00:14.00    frame=  343 fps= 24 q=28.0 size=     256KiB time=00:00:13.64 bitrate= 153.8kbits/s speed=0.94x elapsed=0:00:14.50    frame=  356 fps= 24 q=28.0 size=     256KiB time=00:00:14.16 bitrate= 148.1kbits/s speed=0.943x elapsed=0:00:15.00    frame=  368 fps= 24 q=28.0 size=     256KiB time=00:00:14.64 bitrate= 143.2kbits/s speed=0.944x elapsed=0:00:15.51    frame=  381 fps= 24 q=28.0 size=     256KiB time=00:00:15.16 bitrate= 138.3kbits/s speed=0.947x elapsed=0:00:16.01    frame=  393 fps= 24 q=28.0 size=     256KiB time=00:00:15.64 bitrate= 134.1kbits/s speed=0.947x elapsed=0:00:16.51    frame=  406 fps= 24 q=28.0 size=     256KiB time=00:00:16.16 bitrate= 129.8kbits/s speed=0.95x elapsed=0:00:17.01    frame=  418 fps= 24 q=28.0 size=     256KiB time=00:00:16.68 bitrate= 125.7kbits/s speed=0.952x elapsed=0:00:17.51    frame=  431 fps= 24 q=28.0 size=     256KiB time=00:00:17.16 bitrate= 122.2kbits/s speed=0.953x elapsed=0:00:18.01    frame=  443 fps= 24 q=28.0 size=     256KiB time=00:00:17.64 bitrate= 118.9kbits/s speed=0.953x elapsed=0:00:18.51    frame=  456 fps= 24 q=28.0 size=     256KiB time=00:00:18.16 bitrate= 115.5kbits/s speed=0.955x elapsed=0:00:19.01    frame=  469 fps= 24 q=28.0 size=     256KiB time=00:00:18.68 bitrate= 112.3kbits/s speed=0.957x elapsed=0:00:19.51    frame=  481 fps= 24 q=28.0 size=     256KiB time=00:00:19.16 bitrate= 109.5kbits/s speed=0.957x elapsed=0:00:20.01    frame=  493 fps= 24 q=28.0 size=     256KiB time=00:00:19.64 bitrate= 106.8kbits/s speed=0.957x elapsed=0:00:20.51    frame=  506 fps= 24 q=28.0 size=     512KiB time=00:00:20.16 bitrate= 208.1kbits/s speed=0.959x elapsed=0:00:21.01    frame=  519 fps= 24 q=28.0 size=     512KiB time=00:00:20.68 bitrate= 202.8kbits/s speed=0.961x elapsed=0:00:21.51    frame=  531 fps= 24 q=28.0 size=     512KiB time=00:00:21.16 bitrate= 198.2kbits/s speed=0.961x elapsed=0:00:22.01    frame=  543 fps= 24 q=28.0 size=     512KiB time=00:00:21.64 bitrate= 193.8kbits/s speed=0.961x elapsed=0:00:22.51    frame=  556 fps= 24 q=28.0 size=     512KiB time=00:00:22.16 bitrate= 189.3kbits/s speed=0.963x elapsed=0:00:23.01    frame=  569 fps= 24 q=28.0 size=     512KiB time=00:00:22.68 bitrate= 184.9kbits/s speed=0.964x elapsed=0:00:23.51    frame=  581 fps= 24 q=28.0 size=     512KiB time=00:00:23.16 bitrate= 181.1kbits/s speed=0.964x elapsed=0:00:24.01    frame=  594 fps= 24 q=28.0 size=     512KiB time=00:00:23.68 bitrate= 177.1kbits/s speed=0.966x elapsed=0:00:24.52    frame=  606 fps= 24 q=28.0 size=     512KiB time=00:00:24.16 bitrate= 173.6kbits/s speed=0.966x elapsed=0:00:25.02    frame=  619 fps= 24 q=28.0 size=     512KiB time=00:00:24.68 bitrate= 169.9kbits/s speed=0.967x elapsed=0:00:25.52    frame=  631 fps= 24 q=28.0 size=     512KiB time=00:00:25.16 bitrate= 166.7kbits/s speed=0.967x elapsed=0:00:26.02    frame=  644 fps= 24 q=28.0 size=     512KiB time=00:00:25.68 bitrate= 163.3kbits/s speed=0.968x elapsed=0:00:26.52    frame=  656 fps= 24 q=28.0 size=     512KiB time=00:00:26.16 bitrate= 160.3kbits/s speed=0.968x elapsed=0:00:27.02    frame=  669 fps= 24 q=28.0 size=     512KiB time=00:00:26.68 bitrate= 157.2kbits/s speed=0.969x elapsed=0:00:27.52    frame=  681 fps= 24 q=28.0 size=     512KiB time=00:00:27.16 bitrate= 154.4kbits/s speed=0.969x elapsed=0:00:28.02    frame=  694 fps= 24 q=28.0 size=     512KiB time=00:00:27.68 bitrate= 151.5kbits/s speed=0.97x elapsed=0:00:28.52    frame=  706 fps= 24 q=28.0 size=     512KiB time=00:00:28.16 bitrate= 148.9kbits/s speed=0.97x elapsed=0:00:29.02    frame=  719 fps= 24 q=28.0 size=     512KiB time=00:00:28.68 bitrate= 146.2kbits/s speed=0.971x elapsed=0:00:29.52    frame=  731 fps= 24 q=28.0 size=     512KiB time=00:00:29.16 bitrate= 143.8kbits/s speed=0.971x elapsed=0:00:30.02    frame=  744 fps= 24 q=28.0 size=     512KiB time=00:00:29.68 bitrate= 141.3kbits/s speed=0.972x elapsed=0:00:30.52    frame=  756 fps= 24 q=28.0 size=     768KiB time=00:00:30.16 bitrate= 208.6kbits/s speed=0.972x elapsed=0:00:31.02    frame=  769 fps= 24 q=28.0 size=     768KiB time=00:00:30.68 bitrate= 205.1kbits/s speed=0.973x elapsed=0:00:31.52    frame=  781 fps= 24 q=28.0 size=     768KiB time=00:00:31.16 bitrate= 201.9kbits/s speed=0.973x elapsed=0:00:32.02    frame=  794 fps= 24 q=28.0 size=     768KiB time=00:00:31.68 bitrate= 198.6kbits/s speed=0.974x elapsed=0:00:32.52    frame=  806 fps= 24 q=28.0 size=     768KiB time=00:00:32.16 bitrate= 195.6kbits/s speed=0.974x elapsed=0:00:33.02    frame=  818 fps= 24 q=28.0 size=     768KiB time=00:00:32.64 bitrate= 192.8kbits/s speed=0.974x elapsed=0:00:33.52    frame=  831 fps= 24 q=28.0 size=     768KiB time=00:00:33.16 bitrate= 189.7kbits/s speed=0.974x elapsed=0:00:34.02    frame=  844 fps= 24 q=28.0 size=     768KiB time=00:00:33.68 bitrate= 186.8kbits/s speed=0.975x elapsed=0:00:34.52    frame=  856 fps= 24 q=28.0 size=     768KiB time=00:00:34.16 bitrate= 184.2kbits/s speed=0.975x elapsed=0:00:35.02    frame=  869 fps= 24 q=28.0 size=     768KiB time=00:00:34.68 bitrate= 181.4kbits/s speed=0.976x elapsed=0:00:35.52    frame=  881 fps= 24 q=28.0 size=     768KiB time=00:00:35.16 bitrate= 178.9kbits/s speed=0.976x elapsed=0:00:36.02    frame=  894 fps= 24 q=28.0 size=     768KiB time=00:00:35.68 bitrate= 176.3kbits/s speed=0.977x elapsed=0:00:36.52    frame=  906 fps= 24 q=28.0 size=     768KiB time=00:00:36.16 bitrate= 174.0kbits/s speed=0.977x elapsed=0:00:37.03    frame=  919 fps= 24 q=28.0 size=     768KiB time=00:00:36.68 bitrate= 171.5kbits/s speed=0.977x elapsed=0:00:37.53    frame=  931 fps= 24 q=28.0 size=     768KiB time=00:00:37.16 bitrate= 169.3kbits/s speed=0.977x elapsed=0:00:38.03    frame=  944 fps= 24 q=28.0 size=     768KiB time=00:00:37.68 bitrate= 167.0kbits/s speed=0.978x elapsed=0:00:38.53    frame=  957 fps= 25 q=28.0 size=     768KiB time=00:00:38.20 bitrate= 164.7kbits/s speed=0.978x elapsed=0:00:39.04    frame=  969 fps= 25 q=28.0 size=     768KiB time=00:00:38.68 bitrate= 162.7kbits/s speed=0.978x elapsed=0:00:39.54    frame=  982 fps= 25 q=28.0 size=     768KiB time=00:00:39.20 bitrate= 160.5kbits/s speed=0.979x elapsed=0:00:40.04    frame=  994 fps= 25 q=28.0 size=     768KiB time=00:00:39.68 bitrate= 158.6kbits/s speed=0.979x elapsed=0:00:40.54    frame= 1007 fps= 25 q=28.0 size=    1024KiB time=00:00:40.20 bitrate= 208.7kbits/s speed=0.979x elapsed=0:00:41.04    frame= 1019 fps= 25 q=28.0 size=    1024KiB time=00:00:40.68 bitrate= 206.2kbits/s speed=0.979x elapsed=0:00:41.54    frame= 1032 fps= 25 q=28.0 size=    1024KiB time=00:00:41.20 bitrate= 203.6kbits/s speed=0.98x elapsed=0:00:42.04    frame= 1044 fps= 25 q=28.0 size=    1024KiB time=00:00:41.68 bitrate= 201.3kbits/s speed=0.98x elapsed=0:00:42.54    frame= 1057 fps= 25 q=28.0 size=    1024KiB time=00:00:42.20 bitrate= 198.8kbits/s speed=0.98x elapsed=0:00:43.04    frame= 1069 fps= 25 q=28.0 size=    1024KiB time=00:00:42.68 bitrate= 196.5kbits/s speed=0.98x elapsed=0:00:43.54    frame= 1082 fps= 25 q=28.0 size=    1024KiB time=00:00:43.20 bitrate= 194.2kbits/s speed=0.981x elapsed=0:00:44.04    frame= 1094 fps= 25 q=28.0 size=    1024KiB time=00:00:43.68 bitrate= 192.0kbits/s speed=0.981x elapsed=0:00:44.54    frame= 1107 fps= 25 q=28.0 size=    1024KiB time=00:00:44.20 bitrate= 189.8kbits/s speed=0.981x elapsed=0:00:45.04    frame= 1119 fps= 25 q=28.0 size=    1024KiB time=00:00:44.68 bitrate= 187.7kbits/s speed=0.981x elapsed=0:00:45.55    frame= 1132 fps= 25 q=28.0 size=    1280KiB time=00:00:45.20 bitrate= 232.0kbits/s speed=0.981x elapsed=0:00:46.05    frame= 1144 fps= 25 q=28.0 size=    1280KiB time=00:00:45.68 bitrate= 229.5kbits/s speed=0.981x elapsed=0:00:46.55    frame= 1157 fps= 25 q=28.0 size=    1280KiB time=00:00:46.20 bitrate= 227.0kbits/s speed=0.982x elapsed=0:00:47.05    frame= 1169 fps= 25 q=28.0 size=    1280KiB time=00:00:46.68 bitrate= 224.6kbits/s speed=0.982x elapsed=0:00:47.55    frame= 1182 fps= 25 q=28.0 size=    1280KiB time=00:00:47.20 bitrate= 222.2kbits/s speed=0.982x elapsed=0:00:48.05    frame= 1194 fps= 25 q=28.0 size=    1280KiB time=00:00:47.68 bitrate= 219.9kbits/s speed=0.982x elapsed=0:00:48.55    frame= 1207 fps= 25 q=28.0 size=    1280KiB time=00:00:48.20 bitrate= 217.5kbits/s speed=0.983x elapsed=0:00:49.05    frame= 1219 fps= 25 q=28.0 size=    1280KiB time=00:00:48.68 bitrate= 215.4kbits/s speed=0.982x elapsed=0:00:49.55    frame= 1232 fps= 25 q=28.0 size=    1280KiB time=00:00:49.20 bitrate= 213.1kbits/s speed=0.983x elapsed=0:00:50.05    frame= 1245 fps= 25 q=28.0 size=    1280KiB time=00:00:49.72 bitrate= 210.9kbits/s speed=0.983x elapsed=0:00:50.55    frame= 1257 fps= 25 q=28.0 size=    1280KiB time=00:00:50.20 bitrate= 208.9kbits/s speed=0.983x elapsed=0:00:51.05    frame= 1270 fps= 25 q=28.0 size=    1280KiB time=00:00:50.72 bitrate= 206.7kbits/s speed=0.984x elapsed=0:00:51.55    frame= 1282 fps= 25 q=28.0 size=    1280KiB time=00:00:51.20 bitrate= 204.8kbits/s speed=0.984x elapsed=0:00:52.05    frame= 1295 fps= 25 q=28.0 size=    1280KiB time=00:00:51.72 bitrate= 202.7kbits/s speed=0.984x elapsed=0:00:52.55    frame= 1307 fps= 25 q=28.0 size=    1280KiB time=00:00:52.20 bitrate= 200.9kbits/s speed=0.984x elapsed=0:00:53.05    frame= 1320 fps= 25 q=28.0 size=    1280KiB time=00:00:52.72 bitrate= 198.9kbits/s speed=0.984x elapsed=0:00:53.55    frame= 1332 fps= 25 q=28.0 size=    1280KiB time=00:00:53.20 bitrate= 197.1kbits/s speed=0.984x elapsed=0:00:54.05    frame= 1345 fps= 25 q=28.0 size=    1280KiB time=00:00:53.72 bitrate= 195.2kbits/s speed=0.985x elapsed=0:00:54.55    frame= 1357 fps= 25 q=28.0 size=    1280KiB time=00:00:54.20 bitrate= 193.5kbits/s speed=0.984x elapsed=0:00:55.05    frame= 1370 fps= 25 q=28.0 size=    1280KiB time=00:00:54.72 bitrate= 191.6kbits/s speed=0.985x elapsed=0:00:55.55    frame= 1382 fps= 25 q=28.0 size=    1536KiB time=00:00:55.20 bitrate= 228.0kbits/s speed=0.985x elapsed=0:00:56.05    frame= 1395 fps= 25 q=28.0 size=    1536KiB time=00:00:55.72 bitrate= 225.8kbits/s speed=0.985x elapsed=0:00:56.56    frame= 1407 fps= 25 q=28.0 size=    1536KiB time=00:00:56.20 bitrate= 223.9kbits/s speed=0.985x elapsed=0:00:57.06    frame= 1420 fps= 25 q=28.0 size=    1536KiB time=00:00:56.72 bitrate= 221.8kbits/s speed=0.985x elapsed=0:00:57.56    frame= 1432 fps= 25 q=28.0 size=    1536KiB time=00:00:57.20 bitrate= 220.0kbits/s speed=0.985x elapsed=0:00:58.06    frame= 1445 fps= 25 q=28.0 size=    1536KiB time=00:00:57.72 bitrate= 218.0kbits/s speed=0.986x elapsed=0:00:58.56    frame= 1457 fps= 25 q=28.0 size=    1536KiB time=00:00:58.20 bitrate= 216.2kbits/s speed=0.985x elapsed=0:00:59.06    frame= 1470 fps= 25 q=28.0 size=    1536KiB time=00:00:58.72 bitrate= 214.3kbits/s speed=0.986x elapsed=0:00:59.56    frame= 1482 fps= 25 q=28.0 size=    1536KiB time=00:00:59.20 bitrate= 212.5kbits/s speed=0.986x elapsed=0:01:00.06    frame= 1495 fps= 25 q=28.0 size=    1536KiB time=00:00:59.72 bitrate= 210.7kbits/s speed=0.986x elapsed=0:01:00.56    frame= 1507 fps= 25 q=28.0 size=    1536KiB time=00:01:00.20 bitrate= 209.0kbits/s speed=0.986x elapsed=0:01:01.06    frame= 1519 fps= 25 q=28.0 size=    1536KiB time=00:01:00.72 bitrate= 207.2kbits/s speed=0.986x elapsed=0:01:01.56    frame= 1532 fps= 25 q=28.0 size=    1536KiB time=00:01:01.20 bitrate= 205.6kbits/s speed=0.986x elapsed=0:01:02.06    frame= 1545 fps= 25 q=28.0 size=    1536KiB time=00:01:01.72 bitrate= 203.9kbits/s speed=0.986x elapsed=0:01:02.56    frame= 1557 fps= 25 q=28.0 size=    1536KiB time=00:01:02.20 bitrate= 202.3kbits/s speed=0.986x elapsed=0:01:03.06    frame= 1570 fps= 25 q=28.0 size=    1536KiB time=00:01:02.72 bitrate= 200.6kbits/s speed=0.987x elapsed=0:01:03.56    frame= 1582 fps= 25 q=28.0 size=    1536KiB time=00:01:03.20 bitrate= 199.1kbits/s speed=0.986x elapsed=0:01:04.06    frame= 1595 fps= 25 q=28.0 size=    1536KiB time=00:01:03.72 bitrate= 197.5kbits/s speed=0.987x elapsed=0:01:04.56    frame= 1607 fps= 25 q=28.0 size=    1536KiB time=00:01:04.20 bitrate= 196.0kbits/s speed=0.987x elapsed=0:01:05.06    frame= 1620 fps= 25 q=28.0 size=    1536KiB time=00:01:04.72 bitrate= 194.4kbits/s speed=0.987x elapsed=0:01:05.56    frame= 1632 fps= 25 q=28.0 size=    1792KiB time=00:01:05.20 bitrate= 225.2kbits/s speed=0.987x elapsed=0:01:06.06    frame= 1645 fps= 25 q=28.0 size=    1792KiB time=00:01:05.72 bitrate= 223.4kbits/s speed=0.987x elapsed=0:01:06.56    frame= 1657 fps= 25 q=28.0 size=    1792KiB time=00:01:06.20 bitrate= 221.8kbits/s speed=0.987x elapsed=0:01:07.06    frame= 1670 fps= 25 q=28.0 size=    1792KiB time=00:01:06.72 bitrate= 220.0kbits/s speed=0.987x elapsed=0:01:07.56    frame= 1682 fps= 25 q=28.0 size=    1792KiB time=00:01:07.20 bitrate= 218.5kbits/s speed=0.987x elapsed=0:01:08.07    frame= 1695 fps= 25 q=28.0 size=    1792KiB time=00:01:07.72 bitrate= 216.8kbits/s speed=0.988x elapsed=0:01:08.57    frame= 1707 fps= 25 q=28.0 size=    1792KiB time=00:01:08.20 bitrate= 215.3kbits/s speed=0.987x elapsed=0:01:09.07    frame= 1720 fps= 25 q=28.0 size=    1792KiB time=00:01:08.72 bitrate= 213.6kbits/s speed=0.988x elapsed=0:01:09.57    frame= 1732 fps= 25 q=28.0 size=    1792KiB time=00:01:09.20 bitrate= 212.1kbits/s speed=0.988x elapsed=0:01:10.07    frame= 1745 fps= 25 q=28.0 size=    1792KiB time=00:01:09.72 bitrate= 210.6kbits/s speed=0.988x elapsed=0:01:10.57    frame= 1758 fps= 25 q=28.0 size=    1792KiB time=00:01:10.24 bitrate= 209.0kbits/s speed=0.988x elapsed=0:01:11.07    frame= 1770 fps= 25 q=28.0 size=    1792KiB time=00:01:10.72 bitrate= 207.6kbits/s speed=0.988x elapsed=0:01:11.57    frame= 1783 fps= 25 q=28.0 size=    1792KiB time=00:01:11.24 bitrate= 206.1kbits/s speed=0.988x elapsed=0:01:12.07    frame= 1795 fps= 25 q=28.0 size=    1792KiB time=00:01:11.72 bitrate= 204.7kbits/s speed=0.988x elapsed=0:01:12.57    frame= 1807 fps= 25 q=28.0 size=    1792KiB time=00:01:12.20 bitrate= 203.3kbits/s speed=0.988x elapsed=0:01:13.07    frame= 1820 fps= 25 q=28.0 size=    1792KiB time=00:01:12.72 bitrate= 201.9kbits/s speed=0.988x elapsed=0:01:13.57    frame= 1833 fps= 25 q=28.0 size=    1792KiB time=00:01:13.24 bitrate= 200.4kbits/s speed=0.989x elapsed=0:01:14.07    frame= 1845 fps= 25 q=28.0 size=    1792KiB time=00:01:13.72 bitrate= 199.1kbits/s speed=0.988x elapsed=0:01:14.57    frame= 1858 fps= 25 q=28.0 size=    1792KiB time=00:01:14.24 bitrate= 197.7kbits/s speed=0.989x elapsed=0:01:15.08    frame= 1870 fps= 25 q=28.0 size=    1792KiB time=00:01:14.72 bitrate= 196.5kbits/s speed=0.989x elapsed=0:01:15.58    frame= 1883 fps= 25 q=28.0 size=    2048KiB time=00:01:15.24 bitrate= 223.0kbits/s speed=0.989x elapsed=0:01:16.08    frame= 1895 fps= 25 q=28.0 size=    2048KiB time=00:01:15.72 bitrate= 221.6kbits/s speed=0.989x elapsed=0:01:16.58    frame= 1908 fps= 25 q=28.0 size=    2048KiB time=00:01:16.24 bitrate= 220.1kbits/s speed=0.989x elapsed=0:01:17.08    frame= 1920 fps= 25 q=28.0 size=    2048KiB time=00:01:16.72 bitrate= 218.7kbits/s speed=0.989x elapsed=0:01:17.58    frame= 1933 fps= 25 q=28.0 size=    2048KiB time=00:01:17.24 bitrate= 217.2kbits/s speed=0.989x elapsed=0:01:18.08    frame= 1945 fps= 25 q=28.0 size=    2048KiB time=00:01:17.72 bitrate= 215.9kbits/s speed=0.989x elapsed=0:01:18.58    frame= 1958 fps= 25 q=28.0 size=    2048KiB time=00:01:18.24 bitrate= 214.4kbits/s speed=0.989x elapsed=0:01:19.08    frame= 1970 fps= 25 q=28.0 size=    2048KiB time=00:01:18.72 bitrate= 213.1kbits/s speed=0.989x elapsed=0:01:19.58    frame= 1983 fps= 25 q=28.0 size=    2048KiB time=00:01:19.24 bitrate= 211.7kbits/s speed=0.989x elapsed=0:01:20.08    frame= 1995 fps= 25 q=28.0 size=    2048KiB time=00:01:19.72 bitrate= 210.5kbits/s speed=0.989x elapsed=0:01:20.58    frame= 2008 fps= 25 q=28.0 size=    2048KiB time=00:01:20.24 bitrate= 209.1kbits/s speed=0.99x elapsed=0:01:21.08    frame= 2020 fps= 25 q=28.0 size=    2048KiB time=00:01:20.72 bitrate= 207.8kbits/s speed=0.989x elapsed=0:01:21.58    frame= 2033 fps= 25 q=28.0 size=    2048KiB time=00:01:21.24 bitrate= 206.5kbits/s speed=0.99x elapsed=0:01:22.08    frame= 2045 fps= 25 q=28.0 size=    2048KiB time=00:01:21.72 bitrate= 205.3kbits/s speed=0.989x elapsed=0:01:22.58    frame= 2058 fps= 25 q=28.0 size=    2048KiB time=00:01:22.24 bitrate= 204.0kbits/s speed=0.99x elapsed=0:01:23.08    frame= 2070 fps= 25 q=28.0 size=    2048KiB time=00:01:22.72 bitrate= 202.8kbits/s speed=0.99x elapsed=0:01:23.58    frame= 2083 fps= 25 q=28.0 size=    2048KiB time=00:01:23.24 bitrate= 201.6kbits/s speed=0.99x elapsed=0:01:24.08    frame= 2095 fps= 25 q=28.0 size=    2048KiB time=00:01:23.72 bitrate= 200.4kbits/s speed=0.99x elapsed=0:01:24.58    frame= 2108 fps= 25 q=28.0 size=    2048KiB time=00:01:24.24 bitrate= 199.2kbits/s speed=0.99x elapsed=0:01:25.08    frame= 2120 fps= 25 q=28.0 size=    2048KiB time=00:01:24.72 bitrate= 198.0kbits/s speed=0.99x elapsed=0:01:25.59    frame= 2133 fps= 25 q=28.0 size=    2304KiB time=00:01:25.24 bitrate= 221.4kbits/s speed=0.99x elapsed=0:01:26.09    frame= 2145 fps= 25 q=28.0 size=    2304KiB time=00:01:25.72 bitrate= 220.2kbits/s speed=0.99x elapsed=0:01:26.59    frame= 2158 fps= 25 q=28.0 size=    2304KiB time=00:01:26.24 bitrate= 218.9kbits/s speed=0.99x elapsed=0:01:27.09    frame= 2170 fps= 25 q=28.0 size=    2304KiB time=00:01:26.72 bitrate= 217.6kbits/s speed=0.99x elapsed=0:01:27.59    frame= 2183 fps= 25 q=28.0 size=    2304KiB time=00:01:27.24 bitrate= 216.3kbits/s speed=0.99x elapsed=0:01:28.09    frame= 2195 fps= 25 q=28.0 size=    2304KiB time=00:01:27.72 bitrate= 215.2kbits/s speed=0.99x elapsed=0:01:28.59    frame= 2208 fps= 25 q=28.0 size=    2304KiB time=00:01:28.24 bitrate= 213.9kbits/s speed=0.99x elapsed=0:01:29.09    frame= 2220 fps= 25 q=28.0 size=    2304KiB time=00:01:28.72 bitrate= 212.7kbits/s speed=0.99x elapsed=0:01:29.59    frame= 2233 fps= 25 q=28.0 size=    2304KiB time=00:01:29.24 bitrate= 211.5kbits/s speed=0.991x elapsed=0:01:30.09    frame= 2245 fps= 25 q=28.0 size=    2304KiB time=00:01:29.72 bitrate= 210.4kbits/s speed=0.99x elapsed=0:01:30.59    frame= 2258 fps= 25 q=28.0 size=    2304KiB time=00:01:30.24 bitrate= 209.2kbits/s speed=0.991x elapsed=0:01:31.09    frame= 2270 fps= 25 q=28.0 size=    2304KiB time=00:01:30.72 bitrate= 208.1kbits/s speed=0.99x elapsed=0:01:31.59    frame= 2283 fps= 25 q=28.0 size=    2304KiB time=00:01:31.24 bitrate= 206.9kbits/s speed=0.991x elapsed=0:01:32.09    frame= 2295 fps= 25 q=28.0 size=    2304KiB time=00:01:31.72 bitrate= 205.8kbits/s speed=0.991x elapsed=0:01:32.59    frame= 2308 fps= 25 q=28.0 size=    2304KiB time=00:01:32.24 bitrate= 204.6kbits/s speed=0.991x elapsed=0:01:33.09    frame= 2321 fps= 25 q=28.0 size=    2304KiB time=00:01:32.76 bitrate= 203.5kbits/s speed=0.991x elapsed=0:01:33.59    frame= 2333 fps= 25 q=28.0 size=    2304KiB time=00:01:33.24 bitrate= 202.4kbits/s speed=0.991x elapsed=0:01:34.09    frame= 2345 fps= 25 q=28.0 size=    2304KiB time=00:01:33.72 bitrate= 201.4kbits/s speed=0.991x elapsed=0:01:34.59    [out#0/matroska @ 0x55e95812a500] video:3075KiB audio:0KiB subtitle:0KiB other streams:0KiB global headers:0KiB muxing overhead: 0.565512%
frame= 2378 fps= 25 q=-1.0 Lsize=    3092KiB time=00:01:35.04 bitrate= 266.5kbits/s speed=0.998x elapsed=0:01:35.25    
[libx264 @ 0x55e95812bf00] frame I:10    Avg QP:11.70  size:116195
[libx264 @ 0x55e95812bf00] frame P:601   Avg QP:16.97  size:  2104
[libx264 @ 0x55e95812bf00] frame B:1767  Avg QP:23.90  size:   408
[libx264 @ 0x55e95812bf00] consecutive B-frames:  0.8%  0.3%  0.8% 98.2%
[libx264 @ 0x55e95812bf00] mb I  I16..4: 89.1%  1.9%  9.0%
[libx264 @ 0x55e95812bf00] mb P  I16..4:  0.2%  0.1%  0.1%  P16..4:  0.3%  0.1%  0.1%  0.0%  0.0%    skip:99.1%
[libx264 @ 0x55e95812bf00] mb B  I16..4:  0.0%  0.0%  0.0%  B16..8:  0.2%  0.1%  0.0%  direct: 0.0%  skip:99.7%  L0:46.8% L1:47.6% BI: 5.6%
[libx264 @ 0x55e95812bf00] 8x8 transform intra:4.3% inter:2.9%
[libx264 @ 0x55e95812bf00] coded y,uvDC,uvAC intra: 15.3% 21.7% 18.0% inter: 0.1% 0.1% 0.0%
[libx264 @ 0x55e95812bf00] i16 v,h,dc,p: 70% 28%  2%  0%
[libx264 @ 0x55e95812bf00] i8 v,h,dc,ddl,ddr,vr,hd,vl,hu: 13% 18% 63%  1%  1%  2%  1%  0%  1%
[libx264 @ 0x55e95812bf00] i4 v,h,dc,ddl,ddr,vr,hd,vl,hu: 33% 26% 20%  3%  3%  5%  3%  4%  3%
[libx264 @ 0x55e95812bf00] i8c dc,h,v,p: 61% 29%  9%  1%
[libx264 @ 0x55e95812bf00] Weighted P-Frames: Y:0.0% UV:0.0%
[libx264 @ 0x55e95812bf00] kb/s:264.76
Exiting normally, received signal 2.
